<?xml version="1.0" standalone="no"?><!DOCTYPE svg PUBLIC "-//W3C//DTD SVG 1.1//EN" "http://www.w3.org/Graphics/SVG/1.1/DTD/svg11.dtd"><svg xmlns:xlink="http://www.w3.org/1999/xlink" version="1.1" style="font-family:'lucida grande', 'lucida sans unicode', arial, helvetica, sans-serif;font-size:12px;" xmlns="http://www.w3.org/2000/svg" width="600" height="400"><desc>Created with Highcharts 4.2.7</desc><defs><clipPath id="highcharts-152"><rect x="1" y="1" width="246" height="507"></rect></clipPath></defs><rect x="1" y="1" width="598" height="398" fill="none" class=" highcharts-background"></rect><rect x="81" y="47" width="509" height="248" fill="#ffffff"></rect><path fill="rgb(255, 255, 255)" fill-opacity=" .5" d="M 80.5 47 L 80.5 295 126.5 295 126.5 47"></path><path fill="rgb(255, 255, 255)" fill-opacity=" .5" d="M 173.5 47 L 173.5 295 219.5 295 219.5 47"></path><path fill="rgb(255, 255, 255)" fill-opacity=" .5" d="M 265.5 47 L 265.5 295 311.5 295 311.5 47"></path><path fill="rgb(255, 255, 255)" fill-opacity=" .5" d="M 358.5 47 L 358.5 295 404.5 295 404.5 47"></path><path fill="rgb(255, 255, 255)" fill-opacity=" .5" d="M 450.5 47 L 450.5 295 496.5 295 496.5 47"></path><path fill="rgb(255, 255, 255)" fill-opacity=" .5" d="M 543.5 47 L 543.5 295 589.5 295 589.5 47"></path><g class="highcharts-grid"></g><g class="highcharts-grid"><path fill="none" d="M 80.5 47 L 80.5 295" stroke="#C0C0C0" stroke-width="1" opacity="1"></path><path fill="none" d="M 126.5 47 L 126.5 295" stroke="#C0C0C0" stroke-width="1" opacity="1"></path><path fill="none" d="M 173.5 47 L 173.5 295" stroke="#C0C0C0" stroke-width="1" opacity="1"></path><path fill="none" d="M 219.5 47 L 219.5 295" stroke="#C0C0C0" stroke-width="1" opacity="1"></path><path fill="none" d="M 265.5 47 L 265.5 295" stroke="#C0C0C0" stroke-width="1" opacity="1"></path><path fill="none" d="M 311.5 47 L 311.5 295" stroke="#C0C0C0" stroke-width="1" opacity="1"></path><path fill="none" d="M 358.5 47 L 358.5 295" stroke="#C0C0C0" stroke-width="1" opacity="1"></path><path fill="none" d="M 404.5 47 L 404.5 295" stroke="#C0C0C0" stroke-width="1" opacity="1"></path><path fill="none" d="M 450.5 47 L 450.5 295" stroke="#C0C0C0" stroke-width="1" opacity="1"></path><path fill="none" d="M 496.5 47 L 496.5 295" stroke="#C0C0C0" stroke-width="1" opacity="1"></path><path fill="none" d="M 543.5 47 L 543.5 295" stroke="#C0C0C0" stroke-width="1" opacity="1"></path><path fill="none" d="M 590.5 47 L 590.5 295" stroke="#C0C0C0" stroke-width="1" opacity="1"></path></g><rect x="81" y="47" width="509" height="248" stroke="#0ba302" stroke-width="2" fill="none"></rect><g class="highcharts-axis"><path fill="none" d="M 81 171.5 L 71 171.5" stroke="#C0D0E0" stroke-width="1" opacity="1"></path><path fill="none" d="M 81 295.5 L 71 295.5" stroke="#C0D0E0" stroke-width="1" opacity="1"></path><path fill="none" d="M 81 46.5 L 71 46.5" stroke="#C0D0E0" stroke-width="1" opacity="1"></path><path fill="none" d="M 80.5 47 L 80.5 295" stroke="#C0D0E0" stroke-width="1"></path></g><g class="highcharts-axis"><path fill="none" d="M 80.5 295 L 80.5 305" stroke="#C0D0E0" stroke-width="1" opacity="1"></path><path fill="none" d="M 126.5 295 L 126.5 305" stroke="#C0D0E0" stroke-width="1" opacity="1"></path><path fill="none" d="M 173.5 295 L 173.5 305" stroke="#C0D0E0" stroke-width="1" opacity="1"></path><path fill="none" d="M 219.5 295 L 219.5 305" stroke="#C0D0E0" stroke-width="1" opacity="1"></path><path fill="none" d="M 265.5 295 L 265.5 305" stroke="#C0D0E0" stroke-width="1" opacity="1"></path><path fill="none" d="M 311.5 295 L 311.5 305" stroke="#C0D0E0" stroke-width="1" opacity="1"></path><path fill="none" d="M 358.5 295 L 358.5 305" stroke="#C0D0E0" stroke-width="1" opacity="1"></path><path fill="none" d="M 404.5 295 L 404.5 305" stroke="#C0D0E0" stroke-width="1" opacity="1"></path><path fill="none" d="M 450.5 295 L 450.5 305" stroke="#C0D0E0" stroke-width="1" opacity="1"></path><path fill="none" d="M 496.5 295 L 496.5 305" stroke="#C0D0E0" stroke-width="1" opacity="1"></path><path fill="none" d="M 543.5 295 L 543.5 305" stroke="#C0D0E0" stroke-width="1" opacity="1"></path><path fill="none" d="M 590.5 295 L 590.5 305" stroke="#C0D0E0" stroke-width="1" opacity="1"></path><path fill="none" d="M 81 295.5 L 590 295.5" stroke="#C0D0E0" stroke-width="1"></path></g><g class="highcharts-series-group"><g class="highcharts-series highcharts-series-0" transform="translate(590,295) rotate(90) scale(-1,1) scale(1 1)" width="509" height="248" clip-path="url(#highcharts-152)"><rect x="200.5" y="120.5" width="20" height="389" stroke="#FFFFFF" stroke-width="1" fill="#4d9d09" rx="0" ry="0"></rect><rect x="76.5" y="315.5" width="20" height="194" stroke="#FFFFFF" stroke-width="1" fill="#4d9d09" rx="0" ry="0"></rect></g><g class="highcharts-markers highcharts-series-0" transform="translate(590,295) rotate(90) scale(-1,1) scale(1 1)" width="509" height="248" clip-path="none"></g><g class="highcharts-series highcharts-series-1" transform="translate(590,295) rotate(90) scale(-1,1) scale(1 1)" width="509" height="248" clip-path="url(#highcharts-152)"><rect x="175.5" y="65.5" width="20" height="444" stroke="#FFFFFF" stroke-width="1" fill="#67c730" rx="0" ry="0"></rect><rect x="51.5" y="296.5" width="20" height="213" stroke="#FFFFFF" stroke-width="1" fill="#67c730" rx="0" ry="0"></rect></g><g class="highcharts-markers highcharts-series-1" transform="translate(590,295) rotate(90) scale(-1,1) scale(1 1)" width="509" height="248" clip-path="none"></g><g class="highcharts-series highcharts-series-2" transform="translate(590,295) rotate(90) scale(-1,1) scale(1 1)" width="509" height="248" clip-path="url(#highcharts-152)"><rect x="150.5" y="56.5" width="20" height="453" stroke="#FFFFFF" stroke-width="1" fill="#4ae31c" rx="0" ry="0"></rect><rect x="26.5" y="278.5" width="20" height="231" stroke="#FFFFFF" stroke-width="1" fill="#4ae31c" rx="0" ry="0"></rect></g><g class="highcharts-markers highcharts-series-2" transform="translate(590,295) rotate(90) scale(-1,1) scale(1 1)" width="509" height="248" clip-path="none"></g></g><text x="300" text-anchor="middle" class="highcharts-title" style="color:#000000;font-size:10px;font-family:'arial', sans-serif;text-transform:none;font-weight:bold;fill:#000000;width:536px;" y="17"><tspan>Pippin vs Node Wallet Benchmark (seconds, lower is better)</tspan></text><text x="300" text-anchor="middle" class="highcharts-subtitle" style="color:#000000;font-size:10px;font-family:'arial', sans-serif;text-transform:none;font-weight:bold;fill:#000000;width:536px;" y="33"><tspan>3 Runs, 21 accounts, 62 transactions, Same Node, BoomPoW Providing Work</tspan></text><g class="highcharts-data-labels highcharts-series-0" transform="translate(81,47) scale(1 1)" opacity="1"><g style="cursor:pointer;" transform="translate(389,27)"><text x="5" style="font-size:10px;font-weight:bold;font-family:'arial', sans-serif;color:#000000;text-shadow:none;fill:#000000;text-rendering:geometricprecision;" y="15"><tspan>42</tspan></text></g><g style="cursor:pointer;" transform="translate(194,151)"><text x="5" style="font-size:10px;font-weight:bold;font-family:'arial', sans-serif;color:#000000;text-shadow:none;fill:#000000;text-rendering:geometricprecision;" y="15"><tspan>21</tspan></text></g></g><g class="highcharts-data-labels highcharts-series-1" transform="translate(81,47) scale(1 1)" opacity="1"><g style="cursor:pointer;" transform="translate(444,52)"><text x="5" style="font-size:10px;font-weight:bold;font-family:'arial', sans-serif;color:#000000;text-shadow:none;fill:#000000;text-rendering:geometricprecision;" y="15"><tspan>48</tspan></text></g><g style="cursor:pointer;" transform="translate(213,176)"><text x="5" style="font-size:10px;font-weight:bold;font-family:'arial', sans-serif;color:#000000;text-shadow:none;fill:#000000;text-rendering:geometricprecision;" y="15"><tspan>23</tspan></text></g></g><g class="highcharts-data-labels highcharts-series-2" transform="translate(81,47) scale(1 1)" opacity="1"><g style="cursor:pointer;" transform="translate(453,77)"><text x="5" style="font-size:10px;font-weight:bold;font-family:'arial', sans-serif;color:#000000;text-shadow:none;fill:#000000;text-rendering:geometricprecision;" y="15"><tspan>49</tspan></text></g><g style="cursor:pointer;" transform="translate(231,201)"><text x="5" style="font-size:10px;font-weight:bold;font-family:'arial', sans-serif;color:#000000;text-shadow:none;fill:#000000;text-rendering:geometricprecision;" y="15"><tspan>25</tspan></text></g></g><g class="highcharts-legend" transform="translate(189,360)"><g><g><g class="highcharts-legend-item" transform="translate(8,3)"><text x="21" style="color:#333;font-size:9pt;font-weight:normal;cursor:pointer;font-family:'lucida grande','lucida sans unicode',arial,helvetica,sans-serif;text-transform:none;fill:#333;" text-anchor="start" y="15"><tspan>Run 1</tspan></text><rect x="0" y="4" width="16" height="12" fill="#4d9d09"></rect></g><g class="highcharts-legend-item" transform="translate(83.359375,3)"><text x="21" y="15" style="color:#333;font-size:9pt;font-weight:normal;cursor:pointer;font-family:'lucida grande','lucida sans unicode',arial,helvetica,sans-serif;text-transform:none;fill:#333;" text-anchor="start"><tspan>Run 2</tspan></text><rect x="0" y="4" width="16" height="12" fill="#67c730"></rect></g><g class="highcharts-legend-item" transform="translate(158.71875,3)"><text x="21" y="15" style="color:#333;font-size:9pt;font-weight:normal;cursor:pointer;font-family:'lucida grande','lucida sans unicode',arial,helvetica,sans-serif;text-transform:none;fill:#333;" text-anchor="start"><tspan>Run 3</tspan></text><rect x="0" y="4" width="16" height="12" fill="#4ae31c"></rect></g></g></g></g><g class="highcharts-axis-labels highcharts-xaxis-labels"><text x="66" style="color:#000000;cursor:default;font-size:10px;font-family:'arial', sans-serif;text-transform:none;font-weight:normal;fill:#000000;width:188px;text-overflow:clip;" text-anchor="end" transform="translate(0,0)" y="114" opacity="1"><tspan>Node Wallet</tspan></text><text x="66" style="color:#000000;cursor:default;font-size:10px;font-family:'arial', sans-serif;text-transform:none;font-weight:normal;fill:#000000;width:188px;text-overflow:clip;" text-anchor="end" transform="translate(0,0)" y="238" opacity="1"><tspan>Pippin</tspan></text></g><g class="highcharts-axis-labels highcharts-yaxis-labels"><text x="83.35702260395516" style="color:#000000;cursor:default;font-size:10px;font-family:'arial', sans-serif;text-transform:none;font-weight:normal;fill:#000000;width:400px;text-overflow:ellipsis;" text-anchor="end" transform="translate(0,0) rotate(-45 83.35702260395516 310)" y="310" opacity="1"><tspan>0 seconds</tspan></text><text x="129.6297498766824" style="color:#000000;cursor:default;font-size:10px;font-family:'arial', sans-serif;text-transform:none;font-weight:normal;fill:#000000;width:400px;text-overflow:ellipsis;" text-anchor="end" transform="translate(0,0) rotate(-45 129.6297498766824 310)" y="310" opacity="1"><tspan>5 seconds</tspan></text><text x="175.9024771494097" style="color:#000000;cursor:default;font-size:10px;font-family:'arial', sans-serif;text-transform:none;font-weight:normal;fill:#000000;width:400px;text-overflow:ellipsis;" text-anchor="end" transform="translate(0,0) rotate(-45 175.9024771494097 310)" y="310" opacity="1"><tspan>10 seconds</tspan></text><text x="222.17520442213697" style="color:#000000;cursor:default;font-size:10px;font-family:'arial', sans-serif;text-transform:none;font-weight:normal;fill:#000000;width:400px;text-overflow:ellipsis;" text-anchor="end" transform="translate(0,0) rotate(-45 222.17520442213697 310)" y="310" opacity="1"><tspan>15 seconds</tspan></text><text x="268.4479316948642" style="color:#000000;cursor:default;font-size:10px;font-family:'arial', sans-serif;text-transform:none;font-weight:normal;fill:#000000;width:400px;text-overflow:ellipsis;" text-anchor="end" transform="translate(0,0) rotate(-45 268.4479316948642 310)" y="310" opacity="1"><tspan>20 seconds</tspan></text><text x="314.72065896759153" style="color:#000000;cursor:default;font-size:10px;font-family:'arial', sans-serif;text-transform:none;font-weight:normal;fill:#000000;width:400px;text-overflow:ellipsis;" text-anchor="end" transform="translate(0,0) rotate(-45 314.72065896759153 310)" y="310" opacity="1"><tspan>25 seconds</tspan></text><text x="360.9933862403188" style="color:#000000;cursor:default;font-size:10px;font-family:'arial', sans-serif;text-transform:none;font-weight:normal;fill:#000000;width:400px;text-overflow:ellipsis;" text-anchor="end" transform="translate(0,0) rotate(-45 360.9933862403188 310)" y="310" opacity="1"><tspan>30 seconds</tspan></text><text x="407.26611351304604" style="color:#000000;cursor:default;font-size:10px;font-family:'arial', sans-serif;text-transform:none;font-weight:normal;fill:#000000;width:400px;text-overflow:ellipsis;" text-anchor="end" transform="translate(0,0) rotate(-45 407.26611351304604 310)" y="310" opacity="1"><tspan>35 seconds</tspan></text><text x="453.5388407857733" style="color:#000000;cursor:default;font-size:10px;font-family:'arial', sans-serif;text-transform:none;font-weight:normal;fill:#000000;width:400px;text-overflow:ellipsis;" text-anchor="end" transform="translate(0,0) rotate(-45 453.5388407857733 310)" y="310" opacity="1"><tspan>40 seconds</tspan></text><text x="499.8115680585006" style="color:#000000;cursor:default;font-size:10px;font-family:'arial', sans-serif;text-transform:none;font-weight:normal;fill:#000000;width:400px;text-overflow:ellipsis;" text-anchor="end" transform="translate(0,0) rotate(-45 499.8115680585006 310)" y="310" opacity="1"><tspan>45 seconds</tspan></text><text x="546.0842953312278" style="color:#000000;cursor:default;font-size:10px;font-family:'arial', sans-serif;text-transform:none;font-weight:normal;fill:#000000;width:400px;text-overflow:ellipsis;" text-anchor="end" transform="translate(0,0) rotate(-45 546.0842953312278 310)" y="310" opacity="1"><tspan>50 seconds</tspan></text><text x="592.3570226039551" style="color:#000000;cursor:default;font-size:10px;font-family:'arial', sans-serif;text-transform:none;font-weight:normal;fill:#000000;width:400px;text-overflow:ellipsis;" text-anchor="end" transform="translate(0,0) rotate(-45 592.3570226039551 310)" y="310" opacity="1"><tspan>55 seconds</tspan></text></g><g class="highcharts-tooltip" display="none" style="cursor:default;padding:0;pointer-events:none;white-space:nowrap;" transform="translate(0,0)"><path fill="none" d="M 3.5 0.5 L 13.5 0.5 C 16.5 0.5 16.5 0.5 16.5 3.5 L 16.5 13.5 C 16.5 16.5 16.5 16.5 13.5 16.5 L 3.5 16.5 C 0.5 16.5 0.5 16.5 0.5 13.5 L 0.5 3.5 C 0.5 0.5 0.5 0.5 3.5 0.5"  stroke="black" stroke-opacity="0.049999999999999996" stroke-width="5" transform="translate(1, 1)"></path><path fill="none" d="M 3.5 0.5 L 13.5 0.5 C 16.5 0.5 16.5 0.5 16.5 3.5 L 16.5 13.5 C 16.5 16.5 16.5 16.5 13.5 16.5 L 3.5 16.5 C 0.5 16.5 0.5 16.5 0.5 13.5 L 0.5 3.5 C 0.5 0.5 0.5 0.5 3.5 0.5"  stroke="black" stroke-opacity="0.09999999999999999" stroke-width="3" transform="translate(1, 1)"></path><path fill="none" d="M 3.5 0.5 L 13.5 0.5 C 16.5 0.5 16.5 0.5 16.5 3.5 L 16.5 13.5 C 16.5 16.5 16.5 16.5 13.5 16.5 L 3.5 16.5 C 0.5 16.5 0.5 16.5 0.5 13.5 L 0.5 3.5 C 0.5 0.5 0.5 0.5 3.5 0.5"  stroke="black" stroke-opacity="0.15" stroke-width="1" transform="translate(1, 1)"></path><path fill="rgb(255, 255, 255)" fill-opacity=" 0.85" d="M 3.5 0.5 L 13.5 0.5 C 16.5 0.5 16.5 0.5 16.5 3.5 L 16.5 13.5 C 16.5 16.5 16.5 16.5 13.5 16.5 L 3.5 16.5 C 0.5 16.5 0.5 16.5 0.5 13.5 L 0.5 3.5 C 0.5 0.5 0.5 0.5 3.5 0.5"></path><text x="8" style="font-size:12px;color:#000000;fill:#000000;" y="20"></text></g><text x="590" text-anchor="end" style="cursor:pointer;color:#666;font-size:9px;fill:#666;" y="395">meta-chart.com</text></svg>