<svg xmlns="http://www.w3.org/2000/svg" width="225" height="44"><path d="M76.938 7.75c3.702 0 6.64 1.28 8.814 3.836s3.26 6.105 3.26 10.643c0 4.43-1.123 7.942-3.37 10.535s-5.13 3.9-8.652 3.9c-2.755 0-4.95-.877-6.583-2.63l-.2-.234V44H64V8.397h6.2v2.107c1.69-1.837 3.935-2.755 6.74-2.755zM35.586.236C37.232-.24 39.003.01 40.454.92s2.445 2.397 2.732 4.086L48 34.002h-8v4h8v6H0v-6h8v-4H0L4.814 5.007C5.102 3.32 6.095 1.834 7.546.923s3.22-1.16 4.866-.685A43.47 43.47 0 0 0 24 1.896 43.47 43.47 0 0 0 35.586.236zm95.327 7.512c3.702 0 6.64 1.28 8.814 3.836s3.26 6.105 3.26 10.643c0 4.43-1.123 7.942-3.37 10.535s-5.13 3.9-8.652 3.9c-2.755 0-4.95-.877-6.583-2.63l-.2-.234V44h-6.2V8.397h6.2v2.107c1.69-1.837 3.935-2.755 6.74-2.755zm29.06 0c3.702 0 6.64 1.28 8.814 3.836s3.26 6.105 3.26 10.643c0 4.43-1.123 7.942-3.37 10.535s-5.13 3.9-8.652 3.9c-2.755 0-4.95-.877-6.583-2.63l-.2-.234V44h-6.2V8.397h6.2v2.107c1.69-1.837 3.935-2.755 6.74-2.755zm54.837 0c3.02 0 5.472.91 7.36 2.728 1.82 1.754 2.762 4.504 2.827 8.25l.004.42v16.856h-6.2l-.004-15.91c-.05-2.197-.57-3.808-1.56-4.835-1.042-1.08-2.426-1.62-4.15-1.62-3.973 0-6.002 2.137-6.09 6.41l-.003.288v15.668h-6.2V8.397h5.714V11.8l.115-.214c.567-.992 1.58-1.866 3.04-2.622 1.563-.8 3.28-1.216 5.148-1.216zm-108.325.648v22.15h7.6v5.457H92.685v-5.457h7.6V13.853h-7.6V8.397h13.8zm83.036 0v22.15h7.6v5.457H175.72v-5.457h7.6V13.853h-7.6V8.397h13.8zM28.944 27.555a27.51 27.51 0 0 1-9.888 0c.272 2.526 2.403 4.442 4.944 4.447 2.54-.005 4.672-1.92 4.944-4.447zm47.078-13.918c-2.48 0-4.365.844-5.657 2.53l-.165.225v11.562l.165.225c1.293 1.687 3.197 2.53 5.71 2.53 2.12 0 3.765-.73 4.933-2.188s1.752-3.557 1.752-6.294c0-2.63-.584-4.718-1.752-6.267s-2.83-2.323-4.987-2.323zm53.975 0c-2.48 0-4.365.844-5.657 2.53l-.165.225v11.562l.165.225c1.293 1.687 3.197 2.53 5.71 2.53 2.12 0 3.765-.73 4.933-2.188s1.752-3.557 1.752-6.294c0-2.63-.584-4.718-1.752-6.267s-2.83-2.323-4.987-2.323zm29.06 0c-2.48 0-4.365.844-5.657 2.53l-.165.225v11.562l.165.225c1.293 1.687 3.197 2.53 5.71 2.53 2.12 0 3.765-.73 4.933-2.188s1.752-3.557 1.752-6.294c0-2.63-.584-4.718-1.752-6.267s-2.83-2.323-4.987-2.323zM19 18.005c-1.656 0-3 1.8-3 4 .003.336.04.67.106 1 .133-1.56 1.447-3 2.894-3s2.76 1.44 2.894 3c.067-.33.103-.664.106-1 0-2.2-1.344-4-3-4zm10 0c-1.656 0-3 1.8-3 4 .003.336.04.67.106 1 .133-1.56 1.447-3 2.894-3s2.76 1.44 2.894 3c.067-.33.103-.664.106-1 0-2.2-1.344-4-3-4zM106.47 0v5.24H92.677V0h13.792zm83.044 0v5.24H175.72V0h13.792z" fill="#000" fill-rule="nonzero"/></svg>